<!DOCTYPE svg PUBLIC "-//W3C//DTD SVG 20010904//EN" "http://www.w3.org/TR/2001/REC-SVG-20010904/DTD/svg10.dtd">
<svg version="1.0" xmlns="http://www.w3.org/2000/svg" width="291px" height="309px" viewBox="0 0 2910 3090" preserveAspectRatio="xMidYMid meet">
<g id="layer101" fill="#21b6ea" stroke="none">
 <path d="M166 3075 c-89 -31 -141 -98 -159 -199 -34 -198 118 -392 372 -475 157 -51 313 -68 731 -81 375 -11 592 -28 910 -71 409 -54 604 -171 651 -390 12 -55 -2 -160 -24 -189 -79 -101 -273 -60 -664 140 -246 126 -267 131 -345 81 -56 -36 -70 -59 -71 -122 -1 -45 -2 -47 -38 -58 -233 -70 -401 -384 -439 -824 -17 -204 10 -367 90 -532 74 -154 190 -280 306 -335 64 -29 200 -28 263 2 102 49 190 172 243 338 19 61 23 96 22 185 -1 96 -5 122 -33 205 -58 170 -135 292 -279 442 l-74 76 64 64 c97 99 160 109 281 45 109 -57 213 -206 256 -368 44 -162 46 -438 6 -713 -8 -55 -14 -100 -12 -101 1 -1 19 -14 40 -30 47 -35 49 -32 71 84 115 619 46 958 -258 1270 l-91 93 60 -30 c197 -98 346 -136 503 -130 125 5 164 20 229 91 70 76 133 237 133 340 0 57 -33 164 -73 242 -39 73 -167 205 -257 264 -188 123 -439 210 -720 250 -145 21 -668 71 -956 91 -160 11 -311 26 -337 34 -67 20 -127 58 -176 111 -40 44 -91 138 -91 170 0 42 -61 56 -134 30z m1478 -2066 c67 -128 98 -241 99 -369 2 -124 -11 -186 -64 -296 -38 -81 -102 -154 -135 -154 -28 0 -91 73 -105 120 -8 28 -13 95 -13 175 1 152 28 297 95 518 43 139 43 139 61 115 10 -12 38 -62 62 -109z"/>
 </g>

</svg>